<svg width="241" height="48" viewBox="0 0 241 48" fill="none" xmlns="http://www.w3.org/2000/svg">
<rect x="0.5" width="240" height="48" rx="24" fill="url(#paint0_linear_355_473)"/>
<path d="M54.856 12.78C57.112 12.78 58.816 12.9 59.992 13.14C60.352 13.236 60.544 13.452 60.544 13.788V15.708C60.544 15.948 60.424 16.068 60.184 16.068H54.856C53.248 16.068 52.192 16.476 51.688 17.316C51.208 18.156 50.968 19.788 50.968 22.212C50.968 24.636 51.208 26.244 51.688 27.084C52.192 27.924 53.248 28.332 54.856 28.332H57.856V22.74C57.856 22.476 57.976 22.356 58.216 22.356H61.024C61.264 22.356 61.384 22.476 61.384 22.74V29.556C61.384 29.82 61.36 30.036 61.288 30.156C61.024 30.612 60.256 30.972 59.032 31.236C57.808 31.5 56.416 31.62 54.856 31.62C53.296 31.62 52.024 31.476 51.064 31.188C50.104 30.9 49.312 30.372 48.712 29.628C47.536 28.116 47.152 25.956 47.152 22.212C47.152 18.54 47.68 16.044 48.712 14.748C49.768 13.428 51.808 12.78 54.856 12.78ZM69.5091 17.94C71.8851 17.94 73.4451 18.396 74.2131 19.284C75.0051 20.172 75.3891 21.948 75.4131 24.612V25.356C75.4131 25.836 75.2451 26.004 74.6451 26.004H67.1091C67.1331 27.06 67.3011 27.756 67.6611 28.068C68.0211 28.38 68.7411 28.548 69.8211 28.548H74.0691C74.3091 28.548 74.4291 28.668 74.4291 28.908V30.9C74.4291 31.116 74.3091 31.26 74.0931 31.284C73.0131 31.5 71.5011 31.62 69.5091 31.62C67.0851 31.62 65.4771 31.164 64.6851 30.252C63.8931 29.34 63.4851 27.516 63.4851 24.78C63.4851 22.02 63.8931 20.196 64.6851 19.308C65.4771 18.396 67.0851 17.94 69.5091 17.94ZM69.5091 21.012C67.6851 21.012 67.1091 21.588 67.0851 23.676H71.8371C71.8131 21.588 71.2611 21.012 69.5091 21.012ZM78.6629 15.084L81.4949 14.34C81.7589 14.268 81.8789 14.388 81.8789 14.7V18.132H84.0869C84.3509 18.132 84.4949 18.252 84.4949 18.492V20.412C84.4949 20.652 84.3509 20.772 84.0869 20.772H81.8789V27.324C81.8789 28.308 82.2149 28.548 83.2949 28.548H84.2789C84.5429 28.548 84.6869 28.668 84.6869 28.908V30.948C84.6869 31.212 84.5669 31.356 84.3029 31.404C83.5829 31.548 82.9109 31.62 82.2629 31.62C81.2309 31.62 80.7989 31.62 80.0069 31.404C78.8789 31.092 78.4229 30.348 78.3269 28.524V20.772H76.9109C76.6469 20.772 76.5269 20.652 76.5269 20.412V18.492C76.5269 18.252 76.6469 18.132 76.9109 18.132H78.3269V15.468C78.3269 15.252 78.4469 15.132 78.6629 15.084ZM99.1334 12.78C101.941 12.78 103.933 13.524 105.109 14.988C106.309 16.452 106.909 18.876 106.909 22.212C106.909 25.548 106.309 27.972 105.109 29.436C103.933 30.9 101.941 31.62 99.1334 31.62C96.5174 31.62 94.1894 31.548 92.1734 31.38C91.8854 31.356 91.8134 31.284 91.8134 31.068V13.38C91.8134 13.116 91.8854 13.068 92.1734 13.044C94.1174 12.876 96.4214 12.78 99.1334 12.78ZM98.9414 16.068H95.5814V28.332H99.1334C102.013 28.332 103.093 26.556 103.093 22.212C103.093 17.892 101.941 16.068 98.9414 16.068ZM111.232 12.396C112.552 12.396 113.296 13.092 113.296 14.316C113.296 15.54 112.552 16.26 111.232 16.26C109.888 16.26 109.12 15.54 109.12 14.316C109.12 13.092 109.888 12.396 111.232 12.396ZM109.792 18.06H112.624C112.864 18.06 112.984 18.18 112.984 18.42V31.116C112.984 31.38 112.864 31.5 112.624 31.5H109.792C109.552 31.5 109.432 31.38 109.432 31.116V18.42C109.432 18.18 109.552 18.06 109.792 18.06ZM120.15 17.94C121.518 17.94 122.574 18.036 123.342 18.204C123.606 18.276 123.726 18.42 123.726 18.684V20.652C123.726 20.892 123.582 21.012 123.318 21.012H121.062C119.742 21.012 119.382 21.252 119.382 22.236V31.116C119.382 31.38 119.262 31.5 119.022 31.5H116.166C115.926 31.5 115.806 31.38 115.806 31.116V21.324C115.806 20.172 116.19 19.308 116.694 18.828C117.582 18.084 118.806 17.94 120.15 17.94ZM131.103 17.94C133.479 17.94 135.039 18.396 135.807 19.284C136.599 20.172 136.983 21.948 137.007 24.612V25.356C137.007 25.836 136.839 26.004 136.239 26.004H128.703C128.727 27.06 128.895 27.756 129.255 28.068C129.615 28.38 130.335 28.548 131.415 28.548H135.663C135.903 28.548 136.023 28.668 136.023 28.908V30.9C136.023 31.116 135.903 31.26 135.687 31.284C134.607 31.5 133.095 31.62 131.103 31.62C128.679 31.62 127.071 31.164 126.279 30.252C125.487 29.34 125.079 27.516 125.079 24.78C125.079 22.02 125.487 20.196 126.279 19.308C127.071 18.396 128.679 17.94 131.103 17.94ZM131.103 21.012C129.279 21.012 128.703 21.588 128.679 23.676H133.431C133.407 21.588 132.855 21.012 131.103 21.012ZM144.956 17.94C146.54 17.94 147.836 18.036 148.868 18.252C149.132 18.3 149.276 18.468 149.276 18.732V20.628C149.276 20.892 149.132 21.012 148.868 21.012H144.956C143.876 21.012 143.18 21.252 142.868 21.732C142.556 22.212 142.412 23.22 142.412 24.78C142.412 26.316 142.556 27.324 142.868 27.828C143.18 28.308 143.876 28.548 144.956 28.548H148.868C149.132 28.548 149.276 28.668 149.276 28.908V30.828C149.276 31.092 149.132 31.236 148.868 31.284C147.86 31.5 146.564 31.62 144.956 31.62C142.34 31.62 140.924 31.332 139.988 30.252C139.1 29.124 138.86 27.66 138.86 24.78C138.86 21.9 139.1 20.412 139.988 19.332C140.924 18.204 142.34 17.94 144.956 17.94ZM152.702 15.084L155.534 14.34C155.798 14.268 155.918 14.388 155.918 14.7V18.132H158.126C158.39 18.132 158.534 18.252 158.534 18.492V20.412C158.534 20.652 158.39 20.772 158.126 20.772H155.918V27.324C155.918 28.308 156.254 28.548 157.334 28.548H158.318C158.582 28.548 158.726 28.668 158.726 28.908V30.948C158.726 31.212 158.606 31.356 158.342 31.404C157.622 31.548 156.95 31.62 156.302 31.62C155.27 31.62 154.838 31.62 154.046 31.404C152.918 31.092 152.462 30.348 152.366 28.524V20.772H150.95C150.686 20.772 150.566 20.652 150.566 20.412V18.492C150.566 18.252 150.686 18.132 150.95 18.132H152.366V15.468C152.366 15.252 152.486 15.132 152.702 15.084ZM162.443 12.396C163.763 12.396 164.507 13.092 164.507 14.316C164.507 15.54 163.763 16.26 162.443 16.26C161.099 16.26 160.331 15.54 160.331 14.316C160.331 13.092 161.099 12.396 162.443 12.396ZM161.003 18.06H163.835C164.075 18.06 164.195 18.18 164.195 18.42V31.116C164.195 31.38 164.075 31.5 163.835 31.5H161.003C160.763 31.5 160.643 31.38 160.643 31.116V18.42C160.643 18.18 160.763 18.06 161.003 18.06ZM172.777 17.94C175.369 17.94 176.737 18.252 177.697 19.332C178.657 20.388 178.897 21.924 178.897 24.78C178.897 27.54 178.489 29.364 177.697 30.276C176.905 31.164 175.249 31.62 172.777 31.62C170.305 31.62 168.649 31.164 167.857 30.276C167.065 29.364 166.657 27.54 166.657 24.78C166.657 22.02 167.065 20.196 167.857 19.308C168.649 18.396 170.305 17.94 172.777 17.94ZM172.777 21.012C171.697 21.012 171.001 21.252 170.689 21.756C170.377 22.236 170.233 23.244 170.233 24.78C170.233 26.316 170.377 27.324 170.689 27.828C171.001 28.308 171.697 28.548 172.777 28.548C173.857 28.548 174.553 28.308 174.865 27.828C175.177 27.324 175.345 26.316 175.345 24.78C175.345 23.244 175.177 22.236 174.865 21.756C174.553 21.252 173.857 21.012 172.777 21.012ZM187.434 17.94C189.858 17.94 191.106 18.132 192.042 18.996C193.002 19.86 193.242 21.204 193.242 23.7V31.116C193.242 31.38 193.122 31.5 192.858 31.5H190.026C189.786 31.5 189.666 31.38 189.666 31.116V24.612C189.666 22.812 189.642 22.044 189.186 21.54C188.778 21.036 188.346 21.012 187.098 21.012H184.914V31.116C184.914 31.38 184.794 31.5 184.554 31.5H181.698C181.458 31.5 181.338 31.38 181.338 31.116V18.708C181.338 18.42 181.458 18.396 181.698 18.348C182.922 18.084 184.818 17.94 187.434 17.94Z" fill="black"/>
<defs>
<linearGradient id="paint0_linear_355_473" x1="0.5" y1="23.9923" x2="240.5" y2="23.9923" gradientUnits="userSpaceOnUse">
<stop stop-color="#DAB145"/>
<stop offset="0.03" stop-color="#DAB145"/>
<stop offset="0.06" stop-color="#E7C15C"/>
<stop offset="0.08" stop-color="#EDC967"/>
<stop offset="0.17" stop-color="#DBB652"/>
<stop offset="0.25" stop-color="#CFA944"/>
<stop offset="0.31" stop-color="#D4B04B"/>
<stop offset="0.4" stop-color="#E4C660"/>
<stop offset="0.44" stop-color="#EDD36C"/>
<stop offset="0.58" stop-color="#F7EF8A"/>
<stop offset="0.63" stop-color="#F7EF8A"/>
<stop offset="0.7" stop-color="#EEDA71"/>
<stop offset="0.77" stop-color="#E9CB60"/>
<stop offset="0.81" stop-color="#DFBF56"/>
<stop offset="0.85" stop-color="#D9B850"/>
<stop offset="1" stop-color="#AD8524"/>
</linearGradient>
</defs>
</svg>
