<svg width="302" height="50" viewBox="0 0 302 50" fill="none" xmlns="http://www.w3.org/2000/svg">
<g clip-path="url(#clip0_395_571)">
<path d="M289.661 -6.10352e-05H12.3392C5.52445 -6.10352e-05 0 5.3669 0 11.9874V38.0125C0 44.633 5.52445 50 12.3392 50H289.661C296.476 50 302 44.633 302 38.0125V11.9874C302 5.3669 296.476 -6.10352e-05 289.661 -6.10352e-05Z" fill="url(#paint0_linear_395_571)"/>
<path d="M288.971 4.25757H13.0298C8.71262 4.25757 5.21289 7.65753 5.21289 11.8516V38.1442C5.21289 42.3383 8.71262 45.7382 13.0298 45.7382H288.971C293.288 45.7382 296.788 42.3383 296.788 38.1442V11.8516C296.788 7.65753 293.288 4.25757 288.971 4.25757Z" fill="url(#paint1_linear_395_571)"/>
<path d="M102.142 15.96C103.834 15.96 105.112 16.05 105.994 16.23C106.264 16.302 106.408 16.464 106.408 16.716V18.156C106.408 18.336 106.318 18.426 106.138 18.426H102.142C100.936 18.426 100.144 18.732 99.766 19.362C99.406 19.992 99.226 21.216 99.226 23.034C99.226 24.852 99.406 26.058 99.766 26.688C100.144 27.318 100.936 27.624 102.142 27.624H104.392V23.43C104.392 23.232 104.482 23.142 104.662 23.142H106.768C106.948 23.142 107.038 23.232 107.038 23.43V28.542C107.038 28.74 107.02 28.902 106.966 28.992C106.768 29.334 106.192 29.604 105.274 29.802C104.356 30 103.312 30.09 102.142 30.09C100.972 30.09 100.018 29.982 99.298 29.766C98.578 29.55 97.984 29.154 97.534 28.596C96.652 27.462 96.364 25.842 96.364 23.034C96.364 20.28 96.76 18.408 97.534 17.436C98.326 16.446 99.856 15.96 102.142 15.96ZM113.132 19.83C114.914 19.83 116.084 20.172 116.66 20.838C117.254 21.504 117.542 22.836 117.56 24.834V25.392C117.56 25.752 117.434 25.878 116.984 25.878H111.332C111.35 26.67 111.476 27.192 111.746 27.426C112.016 27.66 112.556 27.786 113.366 27.786H116.552C116.732 27.786 116.822 27.876 116.822 28.056V29.55C116.822 29.712 116.732 29.82 116.57 29.838C115.76 30 114.626 30.09 113.132 30.09C111.314 30.09 110.108 29.748 109.514 29.064C108.92 28.38 108.614 27.012 108.614 24.96C108.614 22.89 108.92 21.522 109.514 20.856C110.108 20.172 111.314 19.83 113.132 19.83ZM113.132 22.134C111.764 22.134 111.332 22.566 111.314 24.132H114.878C114.86 22.566 114.446 22.134 113.132 22.134ZM119.997 17.688L122.121 17.13C122.319 17.076 122.409 17.166 122.409 17.4V19.974H124.065C124.263 19.974 124.371 20.064 124.371 20.244V21.684C124.371 21.864 124.263 21.954 124.065 21.954H122.409V26.868C122.409 27.606 122.661 27.786 123.471 27.786H124.209C124.407 27.786 124.515 27.876 124.515 28.056V29.586C124.515 29.784 124.425 29.892 124.227 29.928C123.687 30.036 123.183 30.09 122.697 30.09C121.923 30.09 121.599 30.09 121.005 29.928C120.159 29.694 119.817 29.136 119.745 27.768V21.954H118.683C118.485 21.954 118.395 21.864 118.395 21.684V20.244C118.395 20.064 118.485 19.974 118.683 19.974H119.745V17.976C119.745 17.814 119.835 17.724 119.997 17.688ZM135.35 15.96C137.456 15.96 138.95 16.518 139.832 17.616C140.732 18.714 141.182 20.532 141.182 23.034C141.182 25.536 140.732 27.354 139.832 28.452C138.95 29.55 137.456 30.09 135.35 30.09C133.388 30.09 131.642 30.036 130.13 29.91C129.914 29.892 129.86 29.838 129.86 29.676V16.41C129.86 16.212 129.914 16.176 130.13 16.158C131.588 16.032 133.316 15.96 135.35 15.96ZM135.206 18.426H132.686V27.624H135.35C137.51 27.624 138.32 26.292 138.32 23.034C138.32 19.794 137.456 18.426 135.206 18.426ZM144.424 15.672C145.414 15.672 145.972 16.194 145.972 17.112C145.972 18.03 145.414 18.57 144.424 18.57C143.416 18.57 142.84 18.03 142.84 17.112C142.84 16.194 143.416 15.672 144.424 15.672ZM143.344 19.92H145.468C145.648 19.92 145.738 20.01 145.738 20.19V29.712C145.738 29.91 145.648 30 145.468 30H143.344C143.164 30 143.074 29.91 143.074 29.712V20.19C143.074 20.01 143.164 19.92 143.344 19.92ZM151.113 19.83C152.139 19.83 152.931 19.902 153.507 20.028C153.705 20.082 153.795 20.19 153.795 20.388V21.864C153.795 22.044 153.687 22.134 153.489 22.134H151.797C150.807 22.134 150.537 22.314 150.537 23.052V29.712C150.537 29.91 150.447 30 150.267 30H148.125C147.945 30 147.855 29.91 147.855 29.712V22.368C147.855 21.504 148.143 20.856 148.521 20.496C149.187 19.938 150.105 19.83 151.113 19.83ZM159.327 19.83C161.109 19.83 162.279 20.172 162.855 20.838C163.449 21.504 163.737 22.836 163.755 24.834V25.392C163.755 25.752 163.629 25.878 163.179 25.878H157.527C157.545 26.67 157.671 27.192 157.941 27.426C158.211 27.66 158.751 27.786 159.561 27.786H162.747C162.927 27.786 163.017 27.876 163.017 28.056V29.55C163.017 29.712 162.927 29.82 162.765 29.838C161.955 30 160.821 30.09 159.327 30.09C157.509 30.09 156.303 29.748 155.709 29.064C155.115 28.38 154.809 27.012 154.809 24.96C154.809 22.89 155.115 21.522 155.709 20.856C156.303 20.172 157.509 19.83 159.327 19.83ZM159.327 22.134C157.959 22.134 157.527 22.566 157.509 24.132H161.073C161.055 22.566 160.641 22.134 159.327 22.134ZM169.717 19.83C170.905 19.83 171.877 19.902 172.651 20.064C172.849 20.1 172.957 20.226 172.957 20.424V21.846C172.957 22.044 172.849 22.134 172.651 22.134H169.717C168.907 22.134 168.385 22.314 168.151 22.674C167.917 23.034 167.809 23.79 167.809 24.96C167.809 26.112 167.917 26.868 168.151 27.246C168.385 27.606 168.907 27.786 169.717 27.786H172.651C172.849 27.786 172.957 27.876 172.957 28.056V29.496C172.957 29.694 172.849 29.802 172.651 29.838C171.895 30 170.923 30.09 169.717 30.09C167.755 30.09 166.693 29.874 165.991 29.064C165.325 28.218 165.145 27.12 165.145 24.96C165.145 22.8 165.325 21.684 165.991 20.874C166.693 20.028 167.755 19.83 169.717 19.83ZM175.526 17.688L177.65 17.13C177.848 17.076 177.938 17.166 177.938 17.4V19.974H179.594C179.792 19.974 179.9 20.064 179.9 20.244V21.684C179.9 21.864 179.792 21.954 179.594 21.954H177.938V26.868C177.938 27.606 178.19 27.786 179 27.786H179.738C179.936 27.786 180.044 27.876 180.044 28.056V29.586C180.044 29.784 179.954 29.892 179.756 29.928C179.216 30.036 178.712 30.09 178.226 30.09C177.452 30.09 177.128 30.09 176.534 29.928C175.688 29.694 175.346 29.136 175.274 27.768V21.954H174.212C174.014 21.954 173.924 21.864 173.924 21.684V20.244C173.924 20.064 174.014 19.974 174.212 19.974H175.274V17.976C175.274 17.814 175.364 17.724 175.526 17.688ZM182.832 15.672C183.822 15.672 184.38 16.194 184.38 17.112C184.38 18.03 183.822 18.57 182.832 18.57C181.824 18.57 181.248 18.03 181.248 17.112C181.248 16.194 181.824 15.672 182.832 15.672ZM181.752 19.92H183.876C184.056 19.92 184.146 20.01 184.146 20.19V29.712C184.146 29.91 184.056 30 183.876 30H181.752C181.572 30 181.482 29.91 181.482 29.712V20.19C181.482 20.01 181.572 19.92 181.752 19.92ZM190.583 19.83C192.527 19.83 193.553 20.064 194.273 20.874C194.993 21.666 195.173 22.818 195.173 24.96C195.173 27.03 194.867 28.398 194.273 29.082C193.679 29.748 192.437 30.09 190.583 30.09C188.729 30.09 187.487 29.748 186.893 29.082C186.299 28.398 185.993 27.03 185.993 24.96C185.993 22.89 186.299 21.522 186.893 20.856C187.487 20.172 188.729 19.83 190.583 19.83ZM190.583 22.134C189.773 22.134 189.251 22.314 189.017 22.692C188.783 23.052 188.675 23.808 188.675 24.96C188.675 26.112 188.783 26.868 189.017 27.246C189.251 27.606 189.773 27.786 190.583 27.786C191.393 27.786 191.915 27.606 192.149 27.246C192.383 26.868 192.509 26.112 192.509 24.96C192.509 23.808 192.383 23.052 192.149 22.692C191.915 22.314 191.393 22.134 190.583 22.134ZM201.575 19.83C203.393 19.83 204.329 19.974 205.031 20.622C205.751 21.27 205.931 22.278 205.931 24.15V29.712C205.931 29.91 205.841 30 205.643 30H203.519C203.339 30 203.249 29.91 203.249 29.712V24.834C203.249 23.484 203.231 22.908 202.889 22.53C202.583 22.152 202.259 22.134 201.323 22.134H199.685V29.712C199.685 29.91 199.595 30 199.415 30H197.273C197.093 30 197.003 29.91 197.003 29.712V20.406C197.003 20.19 197.093 20.172 197.273 20.136C198.191 19.938 199.613 19.83 201.575 19.83Z" fill="white"/>
</g>
<defs>
<linearGradient id="paint0_linear_395_571" x1="150.998" y1="50" x2="150.998" y2="-6.10352e-05" gradientUnits="userSpaceOnUse">
<stop stop-color="#8E5E0A"/>
<stop offset="0.18" stop-color="#C98F2F"/>
<stop offset="0.26" stop-color="#AC7C2C"/>
<stop offset="0.34" stop-color="#976E29"/>
<stop offset="0.42" stop-color="#8A6528"/>
<stop offset="0.49" stop-color="#866328"/>
<stop offset="0.54" stop-color="#8B682C"/>
<stop offset="0.61" stop-color="#9A7939"/>
<stop offset="0.68" stop-color="#B4954F"/>
<stop offset="0.76" stop-color="#D7BB6D"/>
<stop offset="0.83" stop-color="#FCE38D"/>
<stop offset="1" stop-color="#FDE396"/>
</linearGradient>
<linearGradient id="paint1_linear_395_571" x1="150.998" y1="56.656" x2="150.998" y2="6.52007" gradientUnits="userSpaceOnUse">
<stop stop-color="#FFF2BF"/>
<stop offset="0.17" stop-color="#FFE899"/>
<stop offset="0.22" stop-color="#EACF82"/>
<stop offset="0.3" stop-color="#CAA95E"/>
<stop offset="0.38" stop-color="#B38D45"/>
<stop offset="0.45" stop-color="#A57C35"/>
<stop offset="0.51" stop-color="#A17730"/>
<stop offset="0.6" stop-color="#A5792E"/>
<stop offset="0.7" stop-color="#B27F2B"/>
<stop offset="0.8" stop-color="#C78A25"/>
<stop offset="0.82" stop-color="#CC8D24"/>
<stop offset="1" stop-color="#8A5A09"/>
</linearGradient>
<clipPath id="clip0_395_571">
<rect width="302" height="50" fill="white"/>
</clipPath>
</defs>
</svg>
