<svg width="302" height="50" viewBox="0 0 302 50" fill="none" xmlns="http://www.w3.org/2000/svg">
<g clip-path="url(#clip0_413_332)">
<path d="M289.661 0H12.3392C5.52445 0 0 5.36696 0 11.9874V38.0126C0 44.6331 5.52445 50.0001 12.3392 50.0001H289.661C296.476 50.0001 302 44.6331 302 38.0126V11.9874C302 5.36696 296.476 0 289.661 0Z" fill="url(#paint0_linear_413_332)"/>
<path d="M288.971 4.25757H13.0298C8.71262 4.25757 5.21289 7.65753 5.21289 11.8516V38.1442C5.21289 42.3383 8.71262 45.7382 13.0298 45.7382H288.971C293.288 45.7382 296.788 42.3383 296.788 38.1442V11.8516C296.788 7.65753 293.288 4.25757 288.971 4.25757Z" fill="url(#paint1_linear_413_332)"/>
<path d="M85.7123 15.96C87.4043 15.96 88.6823 16.05 89.5643 16.23C89.8343 16.302 89.9783 16.464 89.9783 16.716V18.156C89.9783 18.336 89.8883 18.426 89.7083 18.426H85.7123C84.5063 18.426 83.7143 18.732 83.3363 19.362C82.9763 19.992 82.7963 21.216 82.7963 23.034C82.7963 24.852 82.9763 26.058 83.3363 26.688C83.7143 27.318 84.5063 27.624 85.7123 27.624H87.9623V23.43C87.9623 23.232 88.0523 23.142 88.2323 23.142H90.3383C90.5183 23.142 90.6083 23.232 90.6083 23.43V28.542C90.6083 28.74 90.5903 28.902 90.5363 28.992C90.3383 29.334 89.7623 29.604 88.8443 29.802C87.9263 30 86.8823 30.09 85.7123 30.09C84.5423 30.09 83.5883 29.982 82.8683 29.766C82.1483 29.55 81.5543 29.154 81.1043 28.596C80.2223 27.462 79.9343 25.842 79.9343 23.034C79.9343 20.28 80.3303 18.408 81.1043 17.436C81.8963 16.446 83.4263 15.96 85.7123 15.96ZM96.7742 19.83C98.7182 19.83 99.7442 20.064 100.464 20.874C101.184 21.666 101.364 22.818 101.364 24.96C101.364 27.03 101.058 28.398 100.464 29.082C99.8702 29.748 98.6282 30.09 96.7742 30.09C94.9202 30.09 93.6782 29.748 93.0842 29.082C92.4902 28.398 92.1842 27.03 92.1842 24.96C92.1842 22.89 92.4902 21.522 93.0842 20.856C93.6782 20.172 94.9202 19.83 96.7742 19.83ZM96.7742 22.134C95.9642 22.134 95.4422 22.314 95.2082 22.692C94.9742 23.052 94.8662 23.808 94.8662 24.96C94.8662 26.112 94.9742 26.868 95.2082 27.246C95.4422 27.606 95.9642 27.786 96.7742 27.786C97.5842 27.786 98.1062 27.606 98.3402 27.246C98.5742 26.868 98.7002 26.112 98.7002 24.96C98.7002 23.808 98.5742 23.052 98.3402 22.692C98.1062 22.314 97.5842 22.134 96.7742 22.134ZM112.412 15.96C114.194 15.96 115.454 16.248 116.228 16.824C117.002 17.4 117.398 18.408 117.398 19.83C117.398 21.792 116.822 22.71 115.364 22.98V23.034C117.092 23.25 117.704 24.258 117.704 26.274C117.704 27.696 117.326 28.704 116.57 29.262C115.814 29.82 114.572 30.09 112.844 30.09C110.72 30.09 108.902 30.036 107.39 29.91C107.21 29.892 107.12 29.82 107.12 29.658V16.41C107.12 16.212 107.174 16.176 107.39 16.158C108.848 16.032 110.522 15.96 112.412 15.96ZM112.124 18.426H109.946V22.008H111.782C112.844 22.008 113.582 21.9 113.96 21.684C114.338 21.45 114.536 20.982 114.536 20.262C114.536 18.84 113.87 18.426 112.124 18.426ZM112.664 24.042H109.946V27.624H112.646C114.248 27.624 114.842 27.21 114.842 25.896C114.842 24.474 114.176 24.042 112.664 24.042ZM123.251 19.83C124.925 19.83 126.077 20.082 126.689 20.586C127.301 21.09 127.607 21.864 127.607 22.926V29.154C127.607 29.442 127.481 29.622 127.211 29.712C126.113 29.964 124.745 30.09 123.125 30.09C121.613 30.09 120.857 30.018 120.065 29.604C119.291 29.172 118.985 28.362 118.967 26.976C118.985 25.824 119.273 25.05 119.849 24.636C120.443 24.222 121.379 24.024 122.657 24.024H124.943V23.376C124.943 22.548 124.385 22.134 123.251 22.134H119.993C119.795 22.134 119.741 22.08 119.741 21.864V20.388C119.741 20.19 119.795 20.154 119.993 20.1C120.911 19.92 121.991 19.83 123.251 19.83ZM124.943 27.75V25.752H122.873C121.937 25.752 121.613 26.04 121.613 26.832C121.613 27.678 121.991 27.93 123.143 27.93C123.917 27.93 124.511 27.876 124.943 27.75ZM133.969 19.83C135.157 19.83 136.129 19.902 136.903 20.064C137.101 20.1 137.209 20.226 137.209 20.424V21.846C137.209 22.044 137.101 22.134 136.903 22.134H133.969C133.159 22.134 132.637 22.314 132.403 22.674C132.169 23.034 132.061 23.79 132.061 24.96C132.061 26.112 132.169 26.868 132.403 27.246C132.637 27.606 133.159 27.786 133.969 27.786H136.903C137.101 27.786 137.209 27.876 137.209 28.056V29.496C137.209 29.694 137.101 29.802 136.903 29.838C136.147 30 135.175 30.09 133.969 30.09C132.007 30.09 130.945 29.874 130.243 29.064C129.577 28.218 129.397 27.12 129.397 24.96C129.397 22.8 129.577 21.684 130.243 20.874C130.945 20.028 132.007 19.83 133.969 19.83ZM139.166 16.068H141.29C141.47 16.068 141.56 16.158 141.56 16.356V23.376L144.134 20.1C144.224 19.974 144.35 19.92 144.512 19.92H146.942C147.248 19.92 147.302 20.028 147.104 20.262L144.206 23.88L147.896 29.514C148.076 29.838 147.968 30 147.59 30H145.322C145.124 30 144.998 29.928 144.926 29.802L141.56 24.492V29.712C141.56 29.91 141.47 30 141.29 30H139.166C138.986 30 138.896 29.91 138.896 29.712V16.356C138.896 16.158 138.986 16.068 139.166 16.068ZM150.679 16.068H161.029C161.227 16.068 161.317 16.158 161.317 16.338V18.264C161.317 18.444 161.227 18.534 161.029 18.534H157.267V29.712C157.267 29.91 157.177 30 156.997 30H154.711C154.531 30 154.441 29.91 154.441 29.712V18.534H150.679C150.499 18.534 150.409 18.444 150.409 18.264V16.338C150.409 16.158 150.499 16.068 150.679 16.068ZM162.675 19.83C164.619 19.83 165.645 20.064 166.365 20.874C167.085 21.666 167.265 22.818 167.265 24.96C167.265 27.03 166.959 28.398 166.365 29.082C165.771 29.748 164.529 30.09 162.675 30.09C160.821 30.09 159.579 29.748 158.985 29.082C158.391 28.398 158.085 27.03 158.085 24.96C158.085 22.89 158.391 21.522 158.985 20.856C159.579 20.172 160.821 19.83 162.675 19.83ZM162.675 22.134C161.865 22.134 161.343 22.314 161.109 22.692C160.875 23.052 160.767 23.808 160.767 24.96C160.767 26.112 160.875 26.868 161.109 27.246C161.343 27.606 161.865 27.786 162.675 27.786C163.485 27.786 164.007 27.606 164.241 27.246C164.475 26.868 164.601 26.112 164.601 24.96C164.601 23.808 164.475 23.052 164.241 22.692C164.007 22.314 163.485 22.134 162.675 22.134ZM182.074 16.068H184.36C184.54 16.068 184.63 16.158 184.63 16.356V29.712C184.63 29.91 184.54 30 184.36 30H182.074C181.894 30 181.804 29.91 181.804 29.712V24.276H175.846V29.712C175.846 29.91 175.756 30 175.576 30H173.29C173.11 30 173.02 29.91 173.02 29.712V16.356C173.02 16.158 173.11 16.068 173.29 16.068H175.576C175.756 16.068 175.846 16.158 175.846 16.356V21.774H181.804V16.356C181.804 16.158 181.894 16.068 182.074 16.068ZM191.274 19.83C193.218 19.83 194.244 20.064 194.964 20.874C195.684 21.666 195.864 22.818 195.864 24.96C195.864 27.03 195.558 28.398 194.964 29.082C194.37 29.748 193.128 30.09 191.274 30.09C189.42 30.09 188.178 29.748 187.584 29.082C186.99 28.398 186.684 27.03 186.684 24.96C186.684 22.89 186.99 21.522 187.584 20.856C188.178 20.172 189.42 19.83 191.274 19.83ZM191.274 22.134C190.464 22.134 189.942 22.314 189.708 22.692C189.474 23.052 189.366 23.808 189.366 24.96C189.366 26.112 189.474 26.868 189.708 27.246C189.942 27.606 190.464 27.786 191.274 27.786C192.084 27.786 192.606 27.606 192.84 27.246C193.074 26.868 193.2 26.112 193.2 24.96C193.2 23.808 193.074 23.052 192.84 22.692C192.606 22.314 192.084 22.134 191.274 22.134ZM207.739 19.812C209.179 19.812 210.187 20.082 210.745 20.622C211.303 21.144 211.591 22.152 211.591 23.646L211.573 29.712C211.573 29.91 211.483 30 211.303 30H209.179C208.999 30 208.909 29.91 208.909 29.712V24.834C208.819 22.188 208.747 22.206 207.199 22.134C206.677 22.134 206.191 22.17 205.741 22.242C205.903 22.71 205.975 23.34 205.975 24.15L205.957 29.712C205.957 29.91 205.867 30 205.705 30H203.563C203.401 30 203.311 29.91 203.311 29.712V24.222C203.311 23.196 203.257 22.71 202.951 22.44C202.645 22.152 202.375 22.134 201.583 22.134H200.359V29.712C200.359 29.91 200.269 30 200.089 30H197.965C197.785 30 197.695 29.91 197.695 29.712V20.406C197.695 20.262 197.767 20.172 197.929 20.136C198.865 19.938 200.017 19.83 201.385 19.83C202.735 19.83 203.815 20.028 204.607 20.406C205.633 20.01 206.677 19.812 207.739 19.812ZM217.886 19.83C219.668 19.83 220.838 20.172 221.414 20.838C222.008 21.504 222.296 22.836 222.314 24.834V25.392C222.314 25.752 222.188 25.878 221.738 25.878H216.086C216.104 26.67 216.23 27.192 216.5 27.426C216.77 27.66 217.31 27.786 218.12 27.786H221.306C221.486 27.786 221.576 27.876 221.576 28.056V29.55C221.576 29.712 221.486 29.82 221.324 29.838C220.514 30 219.38 30.09 217.886 30.09C216.068 30.09 214.862 29.748 214.268 29.064C213.674 28.38 213.368 27.012 213.368 24.96C213.368 22.89 213.674 21.522 214.268 20.856C214.862 20.172 216.068 19.83 217.886 19.83ZM217.886 22.134C216.518 22.134 216.086 22.566 216.068 24.132H219.632C219.614 22.566 219.2 22.134 217.886 22.134Z" fill="white"/>
</g>
<defs>
<linearGradient id="paint0_linear_413_332" x1="150.998" y1="50.0001" x2="150.998" y2="0" gradientUnits="userSpaceOnUse">
<stop stop-color="#8E5E0A"/>
<stop offset="0.18" stop-color="#C98F2F"/>
<stop offset="0.26" stop-color="#AC7C2C"/>
<stop offset="0.34" stop-color="#976E29"/>
<stop offset="0.42" stop-color="#8A6528"/>
<stop offset="0.49" stop-color="#866328"/>
<stop offset="0.54" stop-color="#8B682C"/>
<stop offset="0.61" stop-color="#9A7939"/>
<stop offset="0.68" stop-color="#B4954F"/>
<stop offset="0.76" stop-color="#D7BB6D"/>
<stop offset="0.83" stop-color="#FCE38D"/>
<stop offset="1" stop-color="#FDE396"/>
</linearGradient>
<linearGradient id="paint1_linear_413_332" x1="150.998" y1="56.656" x2="150.998" y2="6.52007" gradientUnits="userSpaceOnUse">
<stop stop-color="#FFF2BF"/>
<stop offset="0.17" stop-color="#FFE899"/>
<stop offset="0.22" stop-color="#EACF82"/>
<stop offset="0.3" stop-color="#CAA95E"/>
<stop offset="0.38" stop-color="#B38D45"/>
<stop offset="0.45" stop-color="#A57C35"/>
<stop offset="0.51" stop-color="#A17730"/>
<stop offset="0.6" stop-color="#A5792E"/>
<stop offset="0.7" stop-color="#B27F2B"/>
<stop offset="0.8" stop-color="#C78A25"/>
<stop offset="0.82" stop-color="#CC8D24"/>
<stop offset="1" stop-color="#8A5A09"/>
</linearGradient>
<clipPath id="clip0_413_332">
<rect width="302" height="50" fill="white"/>
</clipPath>
</defs>
</svg>
