<svg width="32" height="31" viewBox="0 0 32 31" fill="none" xmlns="http://www.w3.org/2000/svg">
<g clip-path="url(#clip0_252_480)">
<path d="M16.0043 31.0083C24.8432 31.0083 32.0085 24.0668 32.0085 15.5041C32.0085 6.94144 24.8432 0 16.0043 0C7.16535 0 0 6.94144 0 15.5041C0 24.0668 7.16535 31.0083 16.0043 31.0083Z" fill="#F8C313"/>
<path d="M16.0043 14.6942L24.0065 12.0579V11.0165C24.0065 10.3967 23.4861 9.89258 22.8462 9.89258H9.15388C8.51405 9.89258 7.99365 10.3967 7.99365 11.0165V12.0579L15.9958 14.6942H16.0043Z" fill="black"/>
<path d="M16.0042 16.3058L8.00208 13.6694V19.9835C8.00208 20.6033 8.52247 21.1075 9.1623 21.1075H22.8546C23.4945 21.1075 24.0149 20.6033 24.0149 19.9835V13.6694L16.0127 16.3058H16.0042Z" fill="black"/>
</g>
<defs>
<clipPath id="clip0_252_480">
<rect width="32" height="31" fill="white"/>
</clipPath>
</defs>
</svg>
