<svg width="160" height="21" viewBox="0 0 160 21" fill="none" xmlns="http://www.w3.org/2000/svg">
<rect width="160" height="21" fill="#1E1E1E"/>
<g clip-path="url(#clip0_0_1)">
<rect width="1280" height="2499" transform="translate(-80 -2438)" fill="white"/>
<path d="M159.991 2.33887C159.974 2.53246 160.018 2.75684 159.991 2.94603C159.443 6.63735 153.851 5.00947 155.333 1.70972C156.315 -0.481318 159.562 0.0114448 159.991 2.33887ZM157.111 0.847383C155.275 1.15976 155.297 4.25713 157.195 4.55631C159.991 4.99627 160.133 0.332621 157.111 0.847383Z" fill="black"/>
<path d="M119.64 0.0157467L116.968 0.548107C108.739 3.21871 109.08 14.891 117.702 16.9457C120.666 17.6496 124.427 16.3825 124.02 12.8012C123.573 8.85909 116.592 10.8785 115.609 6.39087C114.49 1.29605 120.799 -0.7058 124.626 1.69642C131.018 5.70452 131.023 15.1286 124.727 19.2643C118.653 23.2548 110.305 20.0255 108.606 13.0388C106.894 6.0125 112.446 -0.406622 119.644 0.0201464L119.64 0.0157467Z" fill="black"/>
<path d="M59.1188 20.3291L60.4858 0.816519L63.7154 0.781322C65.4629 6.11812 67.5422 11.3493 68.9535 16.7917L74.3995 0.719727H77.66L78.7793 20.3291H76.4876L75.6205 3.24954L69.7232 20.1707H67.7634C65.9893 14.5303 63.9322 8.97351 62.4236 3.24954L61.406 20.3335H59.1144L59.1188 20.3291Z" fill="black"/>
<path d="M41.8474 0.719727C41.9491 0.750524 42.5198 2.4312 42.6127 2.69078C43.6701 5.61656 44.754 8.70073 45.6963 11.6617C46.2316 13.3468 46.7625 15.0539 47.0987 16.7917L52.7482 0.719727H55.8539L57.0749 20.3291H54.6284L53.9162 3.24954L47.988 20.0607C47.7933 20.3819 46.4661 20.2059 46.0635 20.1839C44.1877 14.5831 42.1217 8.99991 40.7192 3.24954L39.7504 20.3335H37.4056L38.7284 0.724126H41.8341L41.8474 0.719727Z" fill="black"/>
<path d="M36.1845 10.5002C36.1845 16.1097 31.5968 20.659 25.9428 20.659C20.2889 20.659 15.7012 16.1097 15.7012 10.5002C15.7012 4.89057 20.2845 0.336914 25.9428 0.336914C31.6012 0.336914 36.1845 4.88618 36.1845 10.4958V10.5002ZM33.8309 10.4518C33.8309 6.13128 30.3005 2.62914 25.9473 2.62914C21.594 2.62914 18.0636 6.13128 18.0636 10.4518C18.0636 14.7722 21.594 18.2744 25.9473 18.2744C30.3005 18.2744 33.8309 14.7722 33.8309 10.4518Z" fill="black"/>
<path d="M153.572 0.618408V2.84464H145.622V8.40143H153.369V10.6233H145.622V18.1027H153.572V20.3289H143.18V0.618408H153.572Z" fill="black"/>
<path d="M91.724 4.96528H89.481C89.3174 1.91191 84.8889 1.79751 83.69 4.22613C82.8406 5.95081 84.1324 7.16072 85.5702 7.88226C87.1761 8.6874 88.9059 9.03938 90.3437 10.2229C93.7016 12.9903 92.6354 18.6395 88.6316 20.2453C84.4332 21.9304 80.3896 19.1454 80.2083 14.7722L82.5574 14.715C82.6857 15.2165 82.6769 15.6169 82.8715 16.1228C84.3447 20.0078 90.3703 18.7671 89.8881 14.1166C89.4722 10.1217 81.5222 10.9708 81.0355 5.71322C80.7878 3.03382 82.8229 0.838386 85.38 0.345623C88.7776 -0.309929 91.3436 1.57753 91.7196 4.96528H91.724Z" fill="black"/>
<path d="M108.535 4.35831C108.465 4.40671 107.531 3.67636 107.345 3.57077C100.745 -0.252543 93.8652 6.29417 96.1348 13.1753C97.6788 17.8433 103.001 19.9948 107.305 17.3417L108.535 16.4926L109.615 18.4153C106.115 21.363 100.652 21.5742 97.0771 18.6133C92.2151 14.5788 91.9806 7.02452 96.7143 2.79643C99.8112 0.0290353 105.049 -0.762906 108.588 1.63492C108.827 1.7977 109.69 2.39606 109.615 2.65124C109.482 3.10881 108.655 3.82155 108.531 4.36711L108.535 4.35831Z" fill="black"/>
<path d="M9.37485 0.244558C11.2816 0.0773706 13.3211 0.424945 14.9668 1.41047C15.3208 1.62166 16.4445 2.308 16.2764 2.73477C16.2233 2.86676 15.2544 4.35385 15.1527 4.35385C12.6177 2.18041 8.82185 1.78444 5.99931 3.6675C-1.74277 8.83712 4.14121 21.6798 13.2017 17.7861L15.2057 16.5365C15.3783 16.9017 16.4135 18.0896 16.2808 18.4064C16.1171 18.7936 14.1749 19.8187 13.706 20.0035C5.45072 23.2372 -2.03034 15.4234 0.500218 7.31043C1.70356 3.45192 5.31358 0.605331 9.37485 0.244558Z" fill="black"/>
<path d="M130.85 0.618608C134.615 0.618608 140.49 0.0774485 141.331 4.92589C141.853 7.93526 140.725 10.7291 137.655 11.6618C137.336 11.7586 136.257 12.0358 135.996 12.0358H133.297L133.195 20.3247H130.85V0.618608ZM133.297 9.81832H135.792C135.991 9.81832 137.137 9.47075 137.371 9.36516C139.606 8.36203 139.871 4.84229 137.814 3.57079C137.345 3.28041 136.018 2.84484 135.487 2.84484H133.297V9.81832Z" fill="black"/>
<path d="M156.629 1.52928C157.16 1.47648 157.664 1.3049 158.186 1.55128C158.704 1.79766 158.762 2.5236 158.16 2.6424V2.84038C158.593 2.90638 158.531 3.57513 158.669 3.9007C157.638 4.24828 158.297 2.73919 157.24 2.94157L157.195 3.85671L156.629 3.9535V1.52928ZM157.24 2.5412C157.563 2.55 158.009 2.6292 157.961 2.18483C157.987 1.97365 157.474 1.78006 157.341 1.87685L157.244 2.5412H157.24Z" fill="black"/>
</g>
<defs>
<clipPath id="clip0_0_1">
<rect width="1280" height="2499" fill="white" transform="translate(-80 -2438)"/>
</clipPath>
</defs>
</svg>
