<svg width="160" height="22" viewBox="0 0 160 22" fill="none" xmlns="http://www.w3.org/2000/svg">
<rect width="160" height="22" fill="#1E1E1E"/>
<g clip-path="url(#clip0_0_1)">
<rect width="1280" height="2499" transform="translate(-80 -25)" fill="white"/>
<rect width="1280" height="72" transform="translate(-80 -25)" fill="black"/>
<path d="M159.991 2.83878C159.974 3.03237 160.018 3.25675 159.991 3.44594C159.443 7.13726 153.851 5.50938 155.333 2.20963C156.315 0.01859 159.562 0.511353 159.991 2.83878ZM157.111 1.34729C155.275 1.65967 155.297 4.75704 157.195 5.05622C159.991 5.49618 160.133 0.832529 157.111 1.34729Z" fill="white"/>
<path d="M119.64 0.515747L116.968 1.04811C108.739 3.71871 109.08 15.391 117.702 17.4457C120.666 18.1496 124.427 16.8825 124.02 13.3012C123.573 9.35909 116.592 11.3785 115.609 6.89087C114.49 1.79605 120.799 -0.2058 124.626 2.19642C131.018 6.20452 131.023 15.6286 124.727 19.7643C118.653 23.7548 110.305 20.5255 108.606 13.5388C106.894 6.5125 112.446 0.0933781 119.644 0.520146L119.64 0.515747Z" fill="white"/>
<path d="M59.1187 20.829L60.4857 1.31649L63.7153 1.28129C65.4628 6.61809 67.5421 11.8493 68.9533 17.2917L74.3993 1.2197H77.6599L78.7791 20.829H76.4875L75.6204 3.74951L69.7231 20.6706H67.7633C65.9892 15.0303 63.932 9.47348 62.4234 3.74951L61.4059 20.8334H59.1143L59.1187 20.829Z" fill="white"/>
<path d="M41.8473 1.2197C41.949 1.25049 42.5197 2.93117 42.6126 3.19075C43.67 6.11653 44.7539 9.2007 45.6962 12.1617C46.2315 13.8468 46.7624 15.5538 47.0986 17.2917L52.7481 1.2197H55.8538L57.0748 20.829H54.6283L53.9161 3.74951L47.9878 20.5607C47.7932 20.8818 46.466 20.7058 46.0634 20.6838C44.1876 15.0831 42.1215 9.49988 40.7191 3.74951L39.7503 20.8334H37.4055L38.7283 1.2241H41.834L41.8473 1.2197Z" fill="white"/>
<path d="M36.1845 11.0002C36.1845 16.6098 31.5968 21.159 25.9428 21.159C20.2889 21.159 15.7012 16.6098 15.7012 11.0002C15.7012 5.3906 20.2845 0.836945 25.9428 0.836945C31.6012 0.836945 36.1845 5.38621 36.1845 10.9958V11.0002ZM33.8309 10.9518C33.8309 6.63131 30.3005 3.12917 25.9473 3.12917C21.594 3.12917 18.0636 6.63131 18.0636 10.9518C18.0636 15.2723 21.594 18.7744 25.9473 18.7744C30.3005 18.7744 33.8309 15.2723 33.8309 10.9518Z" fill="white"/>
<path d="M153.572 1.11853V3.34476H145.622V8.90155H153.369V11.1234H145.622V18.6028H153.572V20.8291H143.18V1.11853H153.572Z" fill="white"/>
<path d="M91.724 5.46537H89.481C89.3174 2.412 84.8889 2.29761 83.69 4.72623C82.8406 6.4509 84.1324 7.66081 85.5702 8.38235C87.1761 9.18749 88.9059 9.53947 90.3437 10.723C93.7016 13.4904 92.6354 19.1396 88.6316 20.7454C84.4332 22.4305 80.3896 19.6455 80.2083 15.2722L82.5574 15.215C82.6857 15.7166 82.6769 16.117 82.8715 16.6229C84.3447 20.5079 90.3703 19.2671 89.8881 14.6167C89.4722 10.6218 81.5222 11.4709 81.0355 6.21332C80.7878 3.53391 82.8229 1.33848 85.38 0.845714C88.7776 0.190163 91.3436 2.07762 91.7196 5.46537H91.724Z" fill="white"/>
<path d="M108.535 4.85825C108.465 4.90665 107.531 4.1763 107.345 4.07071C100.745 0.247395 93.8654 6.79411 96.1349 13.6752C97.6789 18.3433 103.001 20.4947 107.306 17.8417L108.535 16.9925L109.615 18.9152C106.116 21.863 100.652 22.0742 97.0772 19.1132C92.2152 15.0787 91.9807 7.52445 96.7145 3.29637C99.8113 0.528974 105.049 -0.262967 108.589 2.13485C108.827 2.29764 109.69 2.896 109.615 3.15118C109.482 3.60875 108.655 4.32149 108.531 4.86705L108.535 4.85825Z" fill="white"/>
<path d="M9.37485 0.744528C11.2816 0.57734 13.3211 0.924914 14.9668 1.91044C15.3208 2.12163 16.4445 2.80797 16.2764 3.23474C16.2233 3.36673 15.2544 4.85382 15.1527 4.85382C12.6177 2.68038 8.82185 2.28441 5.99931 4.16747C-1.74277 9.33709 4.14121 22.1797 13.2017 18.286L15.2057 17.0365C15.3783 17.4017 16.4135 18.5896 16.2808 18.9064C16.1171 19.2935 14.1749 20.3187 13.706 20.5035C5.45072 23.7372 -2.03034 15.9234 0.500218 7.8104C1.70356 3.95189 5.31358 1.1053 9.37485 0.744528Z" fill="white"/>
<path d="M130.85 1.11852C134.615 1.11852 140.49 0.577357 141.331 5.4258C141.853 8.43517 140.725 11.229 137.655 12.1617C137.336 12.2585 136.257 12.5357 135.996 12.5357H133.297L133.195 20.8246H130.85V1.11852ZM133.297 10.3182H135.792C135.991 10.3182 137.137 9.97066 137.371 9.86507C139.606 8.86194 139.871 5.3422 137.814 4.0707C137.345 3.78032 136.018 3.34475 135.487 3.34475H133.297V10.3182Z" fill="white"/>
<path d="M156.629 2.02922C157.16 1.97642 157.664 1.80483 158.186 2.05122C158.704 2.2976 158.762 3.02354 158.16 3.14233V3.34032C158.593 3.40632 158.531 4.07507 158.669 4.40064C157.638 4.74822 158.297 3.23913 157.24 3.44151L157.195 4.35664L156.629 4.45344V2.02922ZM157.24 3.04114C157.563 3.04994 158.009 3.12914 157.961 2.68477C157.987 2.47358 157.474 2.28 157.341 2.37679L157.244 3.04114H157.24Z" fill="white"/>
</g>
<defs>
<clipPath id="clip0_0_1">
<rect width="1280" height="2499" fill="white" transform="translate(-80 -25)"/>
</clipPath>
</defs>
</svg>
