<svg width="302" height="50" viewBox="0 0 302 50" fill="none" xmlns="http://www.w3.org/2000/svg">
<g clip-path="url(#clip0_395_582)">
<path d="M289.661 -6.10352e-05H12.3392C5.52445 -6.10352e-05 0 5.3669 0 11.9874V38.0125C0 44.633 5.52445 50 12.3392 50H289.661C296.476 50 302 44.633 302 38.0125V11.9874C302 5.3669 296.476 -6.10352e-05 289.661 -6.10352e-05Z" fill="url(#paint0_linear_395_582)"/>
<path d="M288.971 4.25757H13.0298C8.71262 4.25757 5.21289 7.65753 5.21289 11.8516V38.1442C5.21289 42.3383 8.71262 45.7382 13.0298 45.7382H288.971C293.288 45.7382 296.788 42.3383 296.788 38.1442V11.8516C296.788 7.65753 293.288 4.25757 288.971 4.25757Z" fill="url(#paint1_linear_395_582)"/>
<path d="M99.336 15.96C101.334 15.96 102.702 16.284 103.458 16.95C104.232 17.598 104.61 18.804 104.61 20.586C104.61 21.936 104.412 22.926 103.998 23.556C103.584 24.168 102.882 24.582 101.856 24.78L104.916 29.64C105.06 29.838 104.97 30 104.7 30H102.432C102.054 30 101.91 29.892 101.712 29.604L98.76 24.96H97.104V29.712C97.104 29.946 97.05 30 96.834 30H94.548C94.332 30 94.278 29.946 94.278 29.712V16.41C94.278 16.212 94.332 16.176 94.548 16.158C96.006 16.032 97.59 15.96 99.336 15.96ZM99.048 18.426H97.104V22.782H99.048C100.146 22.782 100.884 22.656 101.226 22.404C101.568 22.134 101.748 21.558 101.748 20.658C101.748 19.758 101.568 19.164 101.208 18.876C100.848 18.57 100.128 18.426 99.048 18.426ZM110.755 19.83C112.537 19.83 113.707 20.172 114.283 20.838C114.877 21.504 115.165 22.836 115.183 24.834V25.392C115.183 25.752 115.057 25.878 114.607 25.878H108.955C108.973 26.67 109.099 27.192 109.369 27.426C109.639 27.66 110.179 27.786 110.989 27.786H114.175C114.355 27.786 114.445 27.876 114.445 28.056V29.55C114.445 29.712 114.355 29.82 114.193 29.838C113.383 30 112.249 30.09 110.755 30.09C108.937 30.09 107.731 29.748 107.137 29.064C106.543 28.38 106.237 27.012 106.237 24.96C106.237 22.89 106.543 21.522 107.137 20.856C107.731 20.172 108.937 19.83 110.755 19.83ZM110.755 22.134C109.387 22.134 108.955 22.566 108.937 24.132H112.501C112.483 22.566 112.069 22.134 110.755 22.134ZM121.271 19.83C122.657 19.83 123.989 19.938 125.231 20.172C125.483 20.208 125.609 20.352 125.609 20.622V29.784C125.609 30.954 125.519 31.656 125.159 32.322C124.691 33.294 123.485 33.726 121.199 33.726C119.957 33.726 118.841 33.636 117.869 33.474C117.707 33.456 117.617 33.348 117.617 33.186V31.818C117.617 31.638 117.707 31.548 117.869 31.548H120.965C122.531 31.548 122.927 31.206 122.927 30V29.892C122.225 30.018 121.487 30.09 120.731 30.09C119.093 30.09 117.995 29.73 117.419 29.01C116.861 28.29 116.573 26.886 116.573 24.816C116.573 22.836 116.879 21.504 117.509 20.838C118.139 20.172 119.381 19.83 121.271 19.83ZM122.927 27.66V22.134H121.145C120.317 22.134 119.795 22.314 119.561 22.692C119.345 23.07 119.237 23.808 119.237 24.942C119.237 26.112 119.363 26.886 119.597 27.246C119.849 27.588 120.425 27.768 121.325 27.768C121.991 27.768 122.513 27.732 122.927 27.66ZM129.092 15.672C130.082 15.672 130.64 16.194 130.64 17.112C130.64 18.03 130.082 18.57 129.092 18.57C128.084 18.57 127.508 18.03 127.508 17.112C127.508 16.194 128.084 15.672 129.092 15.672ZM128.012 19.92H130.136C130.316 19.92 130.406 20.01 130.406 20.19V29.712C130.406 29.91 130.316 30 130.136 30H128.012C127.832 30 127.742 29.91 127.742 29.712V20.19C127.742 20.01 127.832 19.92 128.012 19.92ZM136.411 19.83C137.401 19.83 138.355 19.902 139.255 20.064C139.453 20.118 139.543 20.208 139.543 20.352V21.72C139.543 21.918 139.435 22.008 139.237 22.008H135.997C135.295 22.008 134.935 22.224 134.935 22.656V22.836C134.935 23.178 135.223 23.466 135.799 23.664L138.103 24.474C139.543 24.978 139.993 25.824 139.993 27.174V27.462C139.993 29.424 138.661 30.09 136.159 30.09C134.827 30.09 133.585 30.036 132.433 29.91C132.235 29.91 132.127 29.82 132.127 29.64V28.182C132.127 28.002 132.235 27.912 132.433 27.912H136.123C137.077 27.912 137.365 27.786 137.365 27.3V27.138C137.365 26.778 137.149 26.562 136.375 26.292L134.161 25.5C132.937 25.086 132.325 24.168 132.325 22.764V22.422C132.325 20.568 133.693 19.83 136.411 19.83ZM142.546 17.688L144.67 17.13C144.868 17.076 144.958 17.166 144.958 17.4V19.974H146.614C146.812 19.974 146.92 20.064 146.92 20.244V21.684C146.92 21.864 146.812 21.954 146.614 21.954H144.958V26.868C144.958 27.606 145.21 27.786 146.02 27.786H146.758C146.956 27.786 147.064 27.876 147.064 28.056V29.586C147.064 29.784 146.974 29.892 146.776 29.928C146.236 30.036 145.732 30.09 145.246 30.09C144.472 30.09 144.148 30.09 143.554 29.928C142.708 29.694 142.366 29.136 142.294 27.768V21.954H141.232C141.034 21.954 140.944 21.864 140.944 21.684V20.244C140.944 20.064 141.034 19.974 141.232 19.974H142.294V17.976C142.294 17.814 142.384 17.724 142.546 17.688ZM152.714 19.83C154.496 19.83 155.666 20.172 156.242 20.838C156.836 21.504 157.124 22.836 157.142 24.834V25.392C157.142 25.752 157.016 25.878 156.566 25.878H150.914C150.932 26.67 151.058 27.192 151.328 27.426C151.598 27.66 152.138 27.786 152.948 27.786H156.134C156.314 27.786 156.404 27.876 156.404 28.056V29.55C156.404 29.712 156.314 29.82 156.152 29.838C155.342 30 154.208 30.09 152.714 30.09C150.896 30.09 149.69 29.748 149.096 29.064C148.502 28.38 148.196 27.012 148.196 24.96C148.196 22.89 148.502 21.522 149.096 20.856C149.69 20.172 150.896 19.83 152.714 19.83ZM152.714 22.134C151.346 22.134 150.914 22.566 150.896 24.132H154.46C154.442 22.566 154.028 22.134 152.714 22.134ZM162.06 19.83C163.086 19.83 163.878 19.902 164.454 20.028C164.652 20.082 164.742 20.19 164.742 20.388V21.864C164.742 22.044 164.634 22.134 164.436 22.134H162.744C161.754 22.134 161.484 22.314 161.484 23.052V29.712C161.484 29.91 161.394 30 161.214 30H159.072C158.892 30 158.802 29.91 158.802 29.712V22.368C158.802 21.504 159.09 20.856 159.468 20.496C160.134 19.938 161.052 19.83 162.06 19.83ZM178.284 16.068H180.57C180.75 16.068 180.84 16.158 180.84 16.356V29.712C180.84 29.91 180.75 30 180.57 30H178.896C178.518 30 178.212 29.856 177.996 29.55L172.092 20.892V29.712C172.092 29.91 172.002 30 171.822 30H169.536C169.356 30 169.266 29.91 169.266 29.712V16.356C169.266 16.158 169.356 16.068 169.536 16.068H171.318C172.074 16.14 172.074 16.176 172.434 16.662L178.014 24.816V16.356C178.014 16.158 178.104 16.068 178.284 16.068ZM187.485 19.83C189.429 19.83 190.455 20.064 191.175 20.874C191.895 21.666 192.075 22.818 192.075 24.96C192.075 27.03 191.769 28.398 191.175 29.082C190.581 29.748 189.339 30.09 187.485 30.09C185.631 30.09 184.389 29.748 183.795 29.082C183.201 28.398 182.895 27.03 182.895 24.96C182.895 22.89 183.201 21.522 183.795 20.856C184.389 20.172 185.631 19.83 187.485 19.83ZM187.485 22.134C186.675 22.134 186.153 22.314 185.919 22.692C185.685 23.052 185.577 23.808 185.577 24.96C185.577 26.112 185.685 26.868 185.919 27.246C186.153 27.606 186.675 27.786 187.485 27.786C188.295 27.786 188.817 27.606 189.051 27.246C189.285 26.868 189.411 26.112 189.411 24.96C189.411 23.808 189.285 23.052 189.051 22.692C188.817 22.314 188.295 22.134 187.485 22.134ZM205.629 19.92H207.915C208.077 19.92 208.149 20.01 208.131 20.172L206.583 28.29C206.439 29.064 206.205 29.568 205.881 29.784C205.575 29.982 204.981 30.09 204.117 30.09C203.091 30.09 202.443 30 202.155 29.802C201.885 29.604 201.651 29.1 201.471 28.29L200.589 24.294L199.707 28.29C199.545 29.1 199.311 29.604 199.023 29.802C198.753 30 198.105 30.09 197.079 30.09C196.215 30.09 195.621 29.982 195.297 29.784C194.991 29.568 194.757 29.064 194.595 28.29L193.065 20.172C193.029 20.01 193.101 19.92 193.281 19.92H195.567C195.657 19.92 195.729 20.01 195.765 20.172L197.007 27.516C197.079 27.804 197.133 27.858 197.295 27.858C197.493 27.858 197.529 27.822 197.583 27.516L199.257 20.478C199.311 20.316 199.401 20.226 199.545 20.226H201.651C201.795 20.226 201.885 20.316 201.921 20.478L203.595 27.516C203.667 27.822 203.685 27.858 203.883 27.858C204.045 27.858 204.117 27.804 204.189 27.516L205.431 20.172C205.467 20.01 205.539 19.92 205.629 19.92Z" fill="white"/>
</g>
<defs>
<linearGradient id="paint0_linear_395_582" x1="150.998" y1="50" x2="150.998" y2="-6.10352e-05" gradientUnits="userSpaceOnUse">
<stop stop-color="#8E5E0A"/>
<stop offset="0.18" stop-color="#C98F2F"/>
<stop offset="0.26" stop-color="#AC7C2C"/>
<stop offset="0.34" stop-color="#976E29"/>
<stop offset="0.42" stop-color="#8A6528"/>
<stop offset="0.49" stop-color="#866328"/>
<stop offset="0.54" stop-color="#8B682C"/>
<stop offset="0.61" stop-color="#9A7939"/>
<stop offset="0.68" stop-color="#B4954F"/>
<stop offset="0.76" stop-color="#D7BB6D"/>
<stop offset="0.83" stop-color="#FCE38D"/>
<stop offset="1" stop-color="#FDE396"/>
</linearGradient>
<linearGradient id="paint1_linear_395_582" x1="150.998" y1="56.656" x2="150.998" y2="6.52007" gradientUnits="userSpaceOnUse">
<stop stop-color="#FFF2BF"/>
<stop offset="0.17" stop-color="#FFE899"/>
<stop offset="0.22" stop-color="#EACF82"/>
<stop offset="0.3" stop-color="#CAA95E"/>
<stop offset="0.38" stop-color="#B38D45"/>
<stop offset="0.45" stop-color="#A57C35"/>
<stop offset="0.51" stop-color="#A17730"/>
<stop offset="0.6" stop-color="#A5792E"/>
<stop offset="0.7" stop-color="#B27F2B"/>
<stop offset="0.8" stop-color="#C78A25"/>
<stop offset="0.82" stop-color="#CC8D24"/>
<stop offset="1" stop-color="#8A5A09"/>
</linearGradient>
<clipPath id="clip0_395_582">
<rect width="302" height="50" fill="white"/>
</clipPath>
</defs>
</svg>
