<svg width="1280" height="70" viewBox="0 0 1280 70" fill="none" xmlns="http://www.w3.org/2000/svg">
<rect width="1280" height="70" fill="url(#paint0_linear_348_511)"/>
<path d="M91.808 20.04C94.272 20.04 96.352 20.2 98.112 20.52C98.592 20.648 98.848 20.936 98.848 21.384V23.944C98.848 24.264 98.688 24.424 98.368 24.424H91.808C89.664 24.424 88.256 24.968 87.584 26.088C86.944 27.208 86.624 29.352 86.624 32.584C86.624 35.816 86.944 37.992 87.584 39.112C88.256 40.232 89.664 40.776 91.808 40.776H98.368C98.688 40.776 98.848 40.936 98.848 41.256V43.848C98.848 44.264 98.592 44.552 98.112 44.68C96.544 45 94.432 45.16 91.808 45.16C87.616 45.16 85.248 44.52 83.616 42.504C82.048 40.456 81.536 37.576 81.536 32.584C81.536 27.592 82.048 24.712 83.616 22.696C85.248 20.68 87.616 20.04 91.808 20.04ZM109.099 26.92C112.555 26.92 114.379 27.336 115.659 28.776C116.939 30.184 117.259 32.232 117.259 36.04C117.259 39.72 116.715 42.152 115.659 43.368C114.603 44.552 112.395 45.16 109.099 45.16C105.803 45.16 103.595 44.552 102.539 43.368C101.483 42.152 100.939 39.72 100.939 36.04C100.939 32.36 101.483 29.928 102.539 28.744C103.595 27.528 105.803 26.92 109.099 26.92ZM109.099 31.016C107.659 31.016 106.731 31.336 106.315 32.008C105.899 32.648 105.707 33.992 105.707 36.04C105.707 38.088 105.899 39.432 106.315 40.104C106.731 40.744 107.659 41.064 109.099 41.064C110.539 41.064 111.467 40.744 111.883 40.104C112.299 39.432 112.523 38.088 112.523 36.04C112.523 33.992 112.299 32.648 111.883 32.008C111.467 31.336 110.539 31.016 109.099 31.016ZM138.369 26.888C140.929 26.888 142.721 27.368 143.713 28.328C144.705 29.256 145.217 31.048 145.217 33.704L145.185 44.488C145.185 44.84 145.025 45 144.705 45H140.929C140.609 45 140.449 44.84 140.449 44.488V35.816C140.289 31.112 140.161 31.144 137.409 31.016C136.481 31.016 135.617 31.08 134.817 31.208C135.105 32.04 135.233 33.16 135.233 34.6L135.201 44.488C135.201 44.84 135.041 45 134.753 45H130.945C130.657 45 130.497 44.84 130.497 44.488V34.728C130.497 32.904 130.401 32.04 129.857 31.56C129.313 31.048 128.833 31.016 127.425 31.016H125.249V44.488C125.249 44.84 125.089 45 124.769 45H120.993C120.673 45 120.513 44.84 120.513 44.488V27.944C120.513 27.688 120.641 27.528 120.929 27.464C122.593 27.112 124.641 26.92 127.073 26.92C129.473 26.92 131.393 27.272 132.801 27.944C134.625 27.24 136.481 26.888 138.369 26.888ZM166.744 26.888C169.304 26.888 171.096 27.368 172.088 28.328C173.08 29.256 173.592 31.048 173.592 33.704L173.56 44.488C173.56 44.84 173.4 45 173.08 45H169.304C168.984 45 168.824 44.84 168.824 44.488V35.816C168.664 31.112 168.536 31.144 165.784 31.016C164.856 31.016 163.992 31.08 163.192 31.208C163.48 32.04 163.608 33.16 163.608 34.6L163.576 44.488C163.576 44.84 163.416 45 163.128 45H159.32C159.032 45 158.872 44.84 158.872 44.488V34.728C158.872 32.904 158.776 32.04 158.232 31.56C157.688 31.048 157.208 31.016 155.8 31.016H153.624V44.488C153.624 44.84 153.464 45 153.144 45H149.368C149.048 45 148.888 44.84 148.888 44.488V27.944C148.888 27.688 149.016 27.528 149.304 27.464C150.968 27.112 153.016 26.92 155.448 26.92C157.848 26.92 159.768 27.272 161.176 27.944C163 27.24 164.856 26.888 166.744 26.888ZM185.871 20.04C187.951 20.04 190.191 20.264 192.559 20.68C192.943 20.808 193.135 21 193.135 21.256V23.848C193.135 24.232 192.943 24.424 192.527 24.424H184.943C182.991 24.424 181.999 25.128 181.999 26.504V26.952C181.999 28.072 182.639 28.872 183.887 29.352L189.871 31.688C191.471 32.328 192.623 33.128 193.295 34.056C193.967 34.984 194.319 36.328 194.319 38.12V39.016C194.319 43.496 191.087 45.16 185.103 45.16C182.639 45.16 180.015 44.936 177.199 44.488C176.847 44.392 176.655 44.168 176.655 43.784V41.352C176.655 40.968 176.847 40.776 177.263 40.776H186.351C188.303 40.776 189.263 40.104 189.263 38.792V38.376C189.263 37 188.655 36.36 186.959 35.72L180.719 33.384C178.031 32.36 176.911 30.536 176.911 26.856V26.152C176.911 21.64 179.855 20.04 185.871 20.04ZM204.879 26.92C206.991 26.92 208.719 27.048 210.095 27.336C210.447 27.4 210.639 27.624 210.639 27.976V30.504C210.639 30.856 210.447 31.016 210.095 31.016H204.879C203.439 31.016 202.511 31.336 202.095 31.976C201.679 32.616 201.487 33.96 201.487 36.04C201.487 38.088 201.679 39.432 202.095 40.104C202.511 40.744 203.439 41.064 204.879 41.064H210.095C210.447 41.064 210.639 41.224 210.639 41.544V44.104C210.639 44.456 210.447 44.648 210.095 44.712C208.751 45 207.023 45.16 204.879 45.16C201.391 45.16 199.503 44.776 198.255 43.336C197.071 41.832 196.751 39.88 196.751 36.04C196.751 32.2 197.071 30.216 198.255 28.776C199.503 27.272 201.391 26.92 204.879 26.92ZM221.255 26.92C224.711 26.92 226.535 27.336 227.815 28.776C229.095 30.184 229.415 32.232 229.415 36.04C229.415 39.72 228.871 42.152 227.815 43.368C226.759 44.552 224.551 45.16 221.255 45.16C217.959 45.16 215.751 44.552 214.695 43.368C213.639 42.152 213.095 39.72 213.095 36.04C213.095 32.36 213.639 29.928 214.695 28.744C215.751 27.528 217.959 26.92 221.255 26.92ZM221.255 31.016C219.815 31.016 218.887 31.336 218.471 32.008C218.055 32.648 217.863 33.992 217.863 36.04C217.863 38.088 218.055 39.432 218.471 40.104C218.887 40.744 219.815 41.064 221.255 41.064C222.695 41.064 223.623 40.744 224.039 40.104C224.455 39.432 224.679 38.088 224.679 36.04C224.679 33.992 224.455 32.648 224.039 32.008C223.623 31.336 222.695 31.016 221.255 31.016ZM240.381 26.92C243.741 26.92 245.949 27.528 247.069 28.744C248.189 29.928 248.733 32.296 248.733 35.784C248.733 39.464 248.221 41.96 247.197 43.24C246.205 44.52 244.253 45.16 241.341 45.16C239.837 45.16 238.525 45.096 237.405 44.968V50.952C237.405 51.272 237.245 51.432 236.925 51.432H233.149C232.829 51.432 232.669 51.272 232.669 50.952V28.328C232.669 27.912 232.893 27.624 233.341 27.528C235.901 27.112 238.237 26.92 240.381 26.92ZM240.605 31.016H237.405V40.84C238.333 40.968 239.293 41.032 240.285 41.032C241.885 41.032 242.909 40.712 243.325 40.104C243.773 39.496 243.997 38.12 243.997 36.04C243.997 34.024 243.805 32.68 243.421 32.008C243.037 31.336 242.109 31.016 240.605 31.016ZM259.47 26.92C262.639 26.92 264.719 27.528 265.743 28.712C266.799 29.896 267.311 32.264 267.343 35.816V36.808C267.343 37.448 267.119 37.672 266.319 37.672H256.271C256.303 39.08 256.527 40.008 257.007 40.424C257.487 40.84 258.447 41.064 259.887 41.064H265.551C265.871 41.064 266.031 41.224 266.031 41.544V44.2C266.031 44.488 265.871 44.68 265.583 44.712C264.143 45 262.127 45.16 259.47 45.16C256.239 45.16 254.095 44.552 253.039 43.336C251.983 42.12 251.439 39.688 251.439 36.04C251.439 32.36 251.983 29.928 253.039 28.744C254.095 27.528 256.239 26.92 259.47 26.92ZM259.47 31.016C257.039 31.016 256.271 31.784 256.239 34.568H262.575C262.543 31.784 261.807 31.016 259.47 31.016ZM293.335 20.232H297.399C297.719 20.232 297.879 20.392 297.879 20.744V44.488C297.879 44.84 297.719 45 297.399 45H294.423C293.751 45 293.207 44.744 292.823 44.2L282.327 28.808V44.488C282.327 44.84 282.167 45 281.847 45H277.783C277.463 45 277.303 44.84 277.303 44.488V20.744C277.303 20.392 277.463 20.232 277.783 20.232H280.951C282.295 20.36 282.295 20.424 282.935 21.288L292.855 35.784V20.744C292.855 20.392 293.015 20.232 293.335 20.232ZM309.564 26.92C312.732 26.92 314.812 27.528 315.836 28.712C316.892 29.896 317.404 32.264 317.436 35.816V36.808C317.436 37.448 317.212 37.672 316.412 37.672H306.364C306.396 39.08 306.62 40.008 307.1 40.424C307.58 40.84 308.54 41.064 309.98 41.064H315.644C315.964 41.064 316.124 41.224 316.124 41.544V44.2C316.124 44.488 315.964 44.68 315.676 44.712C314.236 45 312.22 45.16 309.564 45.16C306.332 45.16 304.188 44.552 303.132 43.336C302.076 42.12 301.532 39.688 301.532 36.04C301.532 32.36 302.076 29.928 303.132 28.744C304.188 27.528 306.332 26.92 309.564 26.92ZM309.564 31.016C307.132 31.016 306.364 31.784 306.332 34.568H312.668C312.636 31.784 311.9 31.016 309.564 31.016ZM321.769 23.112L325.545 22.12C325.897 22.024 326.057 22.184 326.057 22.6V27.176H329.001C329.353 27.176 329.545 27.336 329.545 27.656V30.216C329.545 30.536 329.353 30.696 329.001 30.696H326.057V39.432C326.057 40.744 326.505 41.064 327.945 41.064H329.257C329.609 41.064 329.801 41.224 329.801 41.544V44.264C329.801 44.616 329.641 44.808 329.289 44.872C328.329 45.064 327.433 45.16 326.569 45.16C325.193 45.16 324.617 45.16 323.561 44.872C322.057 44.456 321.449 43.464 321.321 41.032V30.696H319.433C319.081 30.696 318.921 30.536 318.921 30.216V27.656C318.921 27.336 319.081 27.176 319.433 27.176H321.321V23.624C321.321 23.336 321.481 23.176 321.769 23.112ZM353.542 27.08H357.606C357.894 27.08 358.022 27.24 357.99 27.528L355.238 41.96C354.982 43.336 354.566 44.232 353.99 44.616C353.446 44.968 352.39 45.16 350.854 45.16C349.03 45.16 347.878 45 347.366 44.648C346.885 44.296 346.47 43.4 346.15 41.96L344.582 34.856L343.014 41.96C342.726 43.4 342.31 44.296 341.798 44.648C341.318 45 340.166 45.16 338.342 45.16C336.806 45.16 335.75 44.968 335.174 44.616C334.63 44.232 334.214 43.336 333.926 41.96L331.206 27.528C331.142 27.24 331.27 27.08 331.59 27.08H335.654C335.814 27.08 335.942 27.24 336.006 27.528L338.214 40.584C338.342 41.096 338.438 41.192 338.726 41.192C339.078 41.192 339.142 41.128 339.238 40.584L342.214 28.072C342.31 27.784 342.47 27.624 342.726 27.624H346.47C346.726 27.624 346.885 27.784 346.95 28.072L349.926 40.584C350.054 41.128 350.086 41.192 350.438 41.192C350.726 41.192 350.854 41.096 350.982 40.584L353.19 27.528C353.254 27.24 353.382 27.08 353.542 27.08ZM367.88 26.92C371.336 26.92 373.16 27.336 374.44 28.776C375.72 30.184 376.04 32.232 376.04 36.04C376.04 39.72 375.496 42.152 374.44 43.368C373.384 44.552 371.176 45.16 367.88 45.16C364.584 45.16 362.376 44.552 361.32 43.368C360.264 42.152 359.72 39.72 359.72 36.04C359.72 32.36 360.264 29.928 361.32 28.744C362.376 27.528 364.584 26.92 367.88 26.92ZM367.88 31.016C366.44 31.016 365.512 31.336 365.096 32.008C364.68 32.648 364.488 33.992 364.488 36.04C364.488 38.088 364.68 39.432 365.096 40.104C365.512 40.744 366.44 41.064 367.88 41.064C369.32 41.064 370.248 40.744 370.664 40.104C371.08 39.432 371.304 38.088 371.304 36.04C371.304 33.992 371.08 32.648 370.664 32.008C370.248 31.336 369.32 31.016 367.88 31.016ZM385.054 26.92C386.878 26.92 388.286 27.048 389.31 27.272C389.662 27.368 389.822 27.56 389.822 27.912V30.536C389.822 30.856 389.63 31.016 389.278 31.016H386.27C384.51 31.016 384.03 31.336 384.03 32.648V44.488C384.03 44.84 383.87 45 383.55 45H379.742C379.422 45 379.262 44.84 379.262 44.488V31.432C379.262 29.896 379.774 28.744 380.446 28.104C381.63 27.112 383.262 26.92 385.054 26.92ZM392.65 20.232H396.426C396.746 20.232 396.906 20.392 396.906 20.744V33.224L401.482 27.4C401.642 27.176 401.866 27.08 402.154 27.08H406.474C407.018 27.08 407.114 27.272 406.762 27.688L401.61 34.12L408.17 44.136C408.49 44.712 408.298 45 407.626 45H403.594C403.242 45 403.018 44.872 402.89 44.648L396.906 35.208V44.488C396.906 44.84 396.746 45 396.426 45H392.65C392.33 45 392.17 44.84 392.17 44.488V20.744C392.17 20.392 392.33 20.232 392.65 20.232ZM412.414 19.528C414.174 19.528 415.166 20.456 415.166 22.088C415.166 23.72 414.174 24.68 412.414 24.68C410.622 24.68 409.598 23.72 409.598 22.088C409.598 20.456 410.622 19.528 412.414 19.528ZM410.494 27.08H414.27C414.59 27.08 414.75 27.24 414.75 27.56V44.488C414.75 44.84 414.59 45 414.27 45H410.494C410.174 45 410.014 44.84 410.014 44.488V27.56C410.014 27.24 410.174 27.08 410.494 27.08ZM426.672 26.92C429.904 26.92 431.568 27.176 432.816 28.328C434.096 29.48 434.416 31.272 434.416 34.6V44.488C434.416 44.84 434.256 45 433.904 45H430.128C429.808 45 429.648 44.84 429.648 44.488V35.816C429.648 33.416 429.616 32.392 429.008 31.72C428.464 31.048 427.888 31.016 426.224 31.016H423.312V44.488C423.312 44.84 423.152 45 422.832 45H419.024C418.704 45 418.544 44.84 418.544 44.488V27.944C418.544 27.56 418.704 27.528 419.024 27.464C420.656 27.112 423.184 26.92 426.672 26.92ZM445.947 26.92C448.411 26.92 450.779 27.112 452.987 27.528C453.435 27.592 453.659 27.848 453.659 28.328V44.616C453.659 46.696 453.499 47.944 452.859 49.128C452.027 50.856 449.883 51.624 445.819 51.624C443.611 51.624 441.627 51.464 439.899 51.176C439.611 51.144 439.451 50.952 439.451 50.664V48.232C439.451 47.912 439.611 47.752 439.899 47.752H445.403C448.187 47.752 448.891 47.144 448.891 45V44.808C447.643 45.032 446.331 45.16 444.987 45.16C442.075 45.16 440.123 44.52 439.099 43.24C438.107 41.96 437.595 39.464 437.595 35.784C437.595 32.264 438.139 29.896 439.259 28.712C440.379 27.528 442.587 26.92 445.947 26.92ZM448.891 40.84V31.016H445.723C444.251 31.016 443.323 31.336 442.907 32.008C442.523 32.68 442.331 33.992 442.331 36.008C442.331 38.088 442.555 39.464 442.971 40.104C443.419 40.712 444.443 41.032 446.043 41.032C447.227 41.032 448.155 40.968 448.891 40.84ZM473.389 20.04C476.941 20.04 479.373 20.616 480.717 21.8C482.093 22.952 482.765 25.096 482.765 28.264C482.765 30.664 482.413 32.424 481.677 33.544C480.941 34.632 479.693 35.368 477.869 35.72L483.309 44.36C483.565 44.712 483.405 45 482.925 45H478.893C478.221 45 477.965 44.808 477.613 44.296L472.365 36.04H469.421V44.488C469.421 44.904 469.325 45 468.941 45H464.877C464.493 45 464.397 44.904 464.397 44.488V20.84C464.397 20.488 464.493 20.424 464.877 20.392C467.469 20.168 470.285 20.04 473.389 20.04ZM472.877 24.424H469.421V32.168H472.877C474.829 32.168 476.141 31.944 476.749 31.496C477.357 31.016 477.677 29.992 477.677 28.392C477.677 26.792 477.357 25.736 476.717 25.224C476.077 24.68 474.797 24.424 472.877 24.424ZM493.689 26.92C496.857 26.92 498.937 27.528 499.961 28.712C501.017 29.896 501.529 32.264 501.561 35.816V36.808C501.561 37.448 501.337 37.672 500.537 37.672H490.489C490.521 39.08 490.745 40.008 491.225 40.424C491.705 40.84 492.665 41.064 494.105 41.064H499.769C500.089 41.064 500.249 41.224 500.249 41.544V44.2C500.249 44.488 500.089 44.68 499.801 44.712C498.361 45 496.345 45.16 493.689 45.16C490.457 45.16 488.313 44.552 487.257 43.336C486.201 42.12 485.657 39.688 485.657 36.04C485.657 32.36 486.201 29.928 487.257 28.744C488.313 27.528 490.457 26.92 493.689 26.92ZM493.689 31.016C491.257 31.016 490.489 31.784 490.457 34.568H496.793C496.761 31.784 496.025 31.016 493.689 31.016ZM512.16 26.92C514.272 26.92 516 27.048 517.376 27.336C517.728 27.4 517.92 27.624 517.92 27.976V30.504C517.92 30.856 517.728 31.016 517.376 31.016H512.16C510.72 31.016 509.792 31.336 509.376 31.976C508.96 32.616 508.768 33.96 508.768 36.04C508.768 38.088 508.96 39.432 509.376 40.104C509.792 40.744 510.72 41.064 512.16 41.064H517.376C517.728 41.064 517.92 41.224 517.92 41.544V44.104C517.92 44.456 517.728 44.648 517.376 44.712C516.032 45 514.304 45.16 512.16 45.16C508.672 45.16 506.784 44.776 505.536 43.336C504.352 41.832 504.032 39.88 504.032 36.04C504.032 32.2 504.352 30.216 505.536 28.776C506.784 27.272 508.672 26.92 512.16 26.92ZM528.408 26.92C531.576 26.92 533.656 27.528 534.68 28.712C535.736 29.896 536.248 32.264 536.28 35.816V36.808C536.28 37.448 536.056 37.672 535.256 37.672H525.208C525.24 39.08 525.464 40.008 525.944 40.424C526.424 40.84 527.384 41.064 528.824 41.064H534.488C534.808 41.064 534.968 41.224 534.968 41.544V44.2C534.968 44.488 534.808 44.68 534.52 44.712C533.08 45 531.064 45.16 528.408 45.16C525.176 45.16 523.032 44.552 521.976 43.336C520.92 42.12 520.376 39.688 520.376 36.04C520.376 32.36 520.92 29.928 521.976 28.744C523.032 27.528 525.176 26.92 528.408 26.92ZM528.408 31.016C525.976 31.016 525.208 31.784 525.176 34.568H531.512C531.48 31.784 530.744 31.016 528.408 31.016ZM546.975 26.92C550.335 26.92 552.543 27.528 553.663 28.744C554.783 29.928 555.327 32.296 555.327 35.784C555.327 39.464 554.815 41.96 553.791 43.24C552.799 44.52 550.847 45.16 547.935 45.16C546.431 45.16 545.119 45.096 543.999 44.968V50.952C543.999 51.272 543.839 51.432 543.519 51.432H539.743C539.423 51.432 539.263 51.272 539.263 50.952V28.328C539.263 27.912 539.487 27.624 539.935 27.528C542.495 27.112 544.831 26.92 546.975 26.92ZM547.199 31.016H543.999V40.84C544.927 40.968 545.887 41.032 546.879 41.032C548.479 41.032 549.503 40.712 549.919 40.104C550.367 39.496 550.591 38.12 550.591 36.04C550.591 34.024 550.399 32.68 550.015 32.008C549.631 31.336 548.703 31.016 547.199 31.016ZM560.144 23.112L563.92 22.12C564.272 22.024 564.432 22.184 564.432 22.6V27.176H567.376C567.728 27.176 567.92 27.336 567.92 27.656V30.216C567.92 30.536 567.728 30.696 567.376 30.696H564.432V39.432C564.432 40.744 564.88 41.064 566.32 41.064H567.632C567.984 41.064 568.176 41.224 568.176 41.544V44.264C568.176 44.616 568.016 44.808 567.664 44.872C566.704 45.064 565.808 45.16 564.944 45.16C563.568 45.16 562.992 45.16 561.936 44.872C560.432 44.456 559.824 43.464 559.696 41.032V30.696H557.808C557.456 30.696 557.296 30.536 557.296 30.216V27.656C557.296 27.336 557.456 27.176 557.808 27.176H559.696V23.624C559.696 23.336 559.856 23.176 560.144 23.112ZM573.133 19.528C574.893 19.528 575.885 20.456 575.885 22.088C575.885 23.72 574.893 24.68 573.133 24.68C571.341 24.68 570.317 23.72 570.317 22.088C570.317 20.456 571.341 19.528 573.133 19.528ZM571.213 27.08H574.989C575.309 27.08 575.469 27.24 575.469 27.56V44.488C575.469 44.84 575.309 45 574.989 45H571.213C570.893 45 570.733 44.84 570.733 44.488V27.56C570.733 27.24 570.893 27.08 571.213 27.08ZM586.911 26.92C590.367 26.92 592.191 27.336 593.471 28.776C594.751 30.184 595.071 32.232 595.071 36.04C595.071 39.72 594.527 42.152 593.471 43.368C592.415 44.552 590.207 45.16 586.911 45.16C583.615 45.16 581.407 44.552 580.351 43.368C579.295 42.152 578.751 39.72 578.751 36.04C578.751 32.36 579.295 29.928 580.351 28.744C581.407 27.528 583.615 26.92 586.911 26.92ZM586.911 31.016C585.471 31.016 584.543 31.336 584.127 32.008C583.711 32.648 583.519 33.992 583.519 36.04C583.519 38.088 583.711 39.432 584.127 40.104C584.543 40.744 585.471 41.064 586.911 41.064C588.351 41.064 589.279 40.744 589.695 40.104C590.111 39.432 590.335 38.088 590.335 36.04C590.335 33.992 590.111 32.648 589.695 32.008C589.279 31.336 588.351 31.016 586.911 31.016ZM606.454 26.92C609.686 26.92 611.35 27.176 612.597 28.328C613.878 29.48 614.198 31.272 614.198 34.6V44.488C614.198 44.84 614.038 45 613.686 45H609.91C609.59 45 609.43 44.84 609.43 44.488V35.816C609.43 33.416 609.398 32.392 608.79 31.72C608.246 31.048 607.67 31.016 606.006 31.016H603.094V44.488C603.094 44.84 602.934 45 602.614 45H598.806C598.486 45 598.326 44.84 598.326 44.488V27.944C598.326 27.56 598.486 27.528 598.806 27.464C600.438 27.112 602.966 26.92 606.454 26.92ZM631.778 20.04C633.858 20.04 635.298 20.136 636.93 20.648C639.266 21.352 640.738 22.824 640.738 25.864V28.776C640.738 30.088 640.546 31.176 640.162 32.04C639.778 32.904 638.882 33.768 637.506 34.664L631.778 38.216C630.786 38.76 630.498 39.208 630.498 40.008V40.584H640.866C641.026 40.584 641.122 40.648 641.122 40.776V44.808C641.122 44.936 641.058 45 640.898 45H624.45C623.874 45 623.586 44.712 623.586 44.104V41.224C623.586 39.944 623.874 38.92 624.418 38.152C624.994 37.384 626.082 36.456 627.65 35.4L634.466 30.92C635.458 30.248 635.714 29.512 635.714 28.008V26.92C635.714 24.968 634.466 24.424 631.234 24.424H625.026C624.77 24.424 624.642 24.296 624.642 24.072V21.32C624.642 20.936 624.834 20.712 625.25 20.616C627.298 20.232 629.474 20.04 631.778 20.04ZM663.012 32.648C663.012 37.544 662.372 40.872 661.092 42.6C659.844 44.296 657.316 45.16 653.54 45.16C650.436 45.16 648.42 44.68 646.884 43.56C644.644 41.736 644.068 38.536 644.036 32.648C644.036 27.624 644.484 24.776 645.924 22.728C647.364 20.68 649.668 20.04 653.54 20.04C657.412 20.04 659.684 20.68 661.124 22.728C662.564 24.776 663.012 27.624 663.012 32.648ZM653.54 24.424C651.78 24.424 650.596 25 649.988 26.152C649.38 27.272 649.092 29.448 649.092 32.648C649.092 35.816 649.38 37.992 649.988 39.112C650.596 40.232 651.78 40.776 653.54 40.776C655.3 40.776 656.452 40.232 657.06 39.112C657.668 37.992 657.956 35.816 657.956 32.648C657.956 29.448 657.668 27.272 657.06 26.152C656.452 25 655.3 24.424 653.54 24.424ZM673.747 20.04C675.827 20.04 677.267 20.136 678.899 20.648C681.235 21.352 682.707 22.824 682.707 25.864V28.776C682.707 30.088 682.515 31.176 682.131 32.04C681.747 32.904 680.851 33.768 679.475 34.664L673.747 38.216C672.755 38.76 672.467 39.208 672.467 40.008V40.584H682.835C682.995 40.584 683.091 40.648 683.091 40.776V44.808C683.091 44.936 683.027 45 682.867 45H666.419C665.843 45 665.555 44.712 665.555 44.104V41.224C665.555 39.944 665.843 38.92 666.387 38.152C666.963 37.384 668.051 36.456 669.619 35.4L676.435 30.92C677.427 30.248 677.683 29.512 677.683 28.008V26.92C677.683 24.968 676.435 24.424 673.203 24.424H666.995C666.739 24.424 666.611 24.296 666.611 24.072V21.32C666.611 20.936 666.803 20.712 667.219 20.616C669.266 20.232 671.443 20.04 673.747 20.04ZM687.413 20.232H702.261C702.581 20.232 702.741 20.392 702.741 20.712V24.136C702.741 24.456 702.581 24.616 702.261 24.616H691.221L690.805 29.8C691.765 29.672 692.853 29.608 694.069 29.608C697.237 29.608 699.541 30.088 701.013 31.016C702.485 31.944 703.221 33.672 703.253 36.2V38.6C703.221 41.16 702.453 42.888 700.917 43.816C699.381 44.712 696.917 45.16 693.493 45.16C690.709 45.16 688.501 45 686.869 44.712C686.389 44.616 686.133 44.36 686.133 43.976V41.192C686.133 40.904 686.293 40.776 686.613 40.776H693.173C695.189 40.776 696.533 40.552 697.205 40.104C697.877 39.656 698.197 38.792 698.197 37.544V37.288C698.165 36.008 697.845 35.144 697.173 34.696C696.533 34.216 695.189 33.992 693.173 33.992H686.997C686.421 33.992 686.133 33.768 686.133 33.352V30.312L686.901 20.712C686.933 20.392 687.125 20.232 687.413 20.232Z" fill="black"/>
<path d="M1199.99 23.3192C1199.96 23.5963 1200.03 23.9174 1199.99 24.1882C1199.2 29.4714 1191.2 27.1415 1193.32 22.4187C1194.73 19.2828 1199.37 19.9881 1199.99 23.3192ZM1195.87 21.1845C1193.24 21.6316 1193.27 26.0647 1195.99 26.4929C1199.99 27.1226 1200.19 20.4478 1195.87 21.1845Z" fill="black"/>
<path d="M1142.23 19.9944L1138.41 20.7563C1126.63 24.5786 1127.12 41.2847 1139.46 44.2254C1143.7 45.2329 1149.09 43.4194 1148.5 38.2936C1147.86 32.6514 1137.87 35.5418 1136.47 29.1188C1134.86 21.8268 1143.89 18.9617 1149.37 22.3999C1158.52 28.1365 1158.53 41.6247 1149.52 47.5439C1140.82 53.2553 1128.87 48.6333 1126.44 38.6336C1123.99 28.5773 1131.94 19.3899 1142.24 20.0007L1142.23 19.9944Z" fill="black"/>
<path d="M1055.61 49.0678L1057.57 21.1405L1062.19 21.0901C1064.69 28.7284 1067.67 36.2156 1069.69 44.005L1077.48 21.002H1082.15L1083.75 49.0678H1080.47L1079.23 24.6227L1070.79 48.8411H1067.99C1065.45 40.7683 1062.5 32.8152 1060.34 24.6227L1058.89 49.0741H1055.61L1055.61 49.0678Z" fill="black"/>
<path d="M1030.89 21.002C1031.04 21.046 1031.86 23.4515 1031.99 23.823C1033.5 28.0105 1035.05 32.4248 1036.4 36.6627C1037.17 39.0744 1037.93 41.5177 1038.41 44.005L1046.5 21.002H1050.94L1052.69 49.0678H1049.19L1048.17 24.6227L1039.68 48.6837C1039.4 49.1434 1037.5 48.8915 1036.93 48.86C1034.24 40.8439 1031.29 32.853 1029.28 24.6227L1027.89 49.0741H1024.54L1026.43 21.0083H1030.87L1030.89 21.002Z" fill="black"/>
<path d="M1022.79 35.0002C1022.79 43.0289 1016.22 49.5401 1008.13 49.5401C1000.04 49.5401 993.472 43.0289 993.472 35.0002C993.472 26.9715 1000.03 20.4541 1008.13 20.4541C1016.23 20.4541 1022.79 26.9652 1022.79 34.9939V35.0002ZM1019.42 34.9309C1019.42 28.7473 1014.37 23.7348 1008.14 23.7348C1001.91 23.7348 996.854 28.7473 996.854 34.9309C996.854 41.1146 1001.91 46.1271 1008.14 46.1271C1014.37 46.1271 1019.42 41.1146 1019.42 34.9309Z" fill="black"/>
<path d="M1190.8 20.8571V24.0434H1179.42V31.9966H1190.51V35.1766H1179.42V45.8816H1190.8V49.0679H1175.93V20.8571H1190.8Z" fill="black"/>
<path d="M1102.28 27.0785H1099.07C1098.84 22.7084 1092.5 22.5446 1090.78 26.0206C1089.57 28.489 1091.41 30.2207 1093.47 31.2534C1095.77 32.4058 1098.25 32.9096 1100.3 34.6035C1105.11 38.5643 1103.58 46.6497 1097.85 48.9481C1091.85 51.3599 1086.06 47.3738 1085.8 41.1146L1089.16 41.0327C1089.34 41.7506 1089.33 42.3236 1089.61 43.0478C1091.72 48.6081 1100.34 46.8323 1099.65 40.1763C1099.06 34.4586 1087.68 35.674 1086.98 28.149C1086.63 24.3141 1089.54 21.1719 1093.2 20.4666C1098.06 19.5284 1101.74 22.2298 1102.27 27.0785H1102.28Z" fill="black"/>
<path d="M1126.34 26.2096C1126.24 26.2789 1124.9 25.2336 1124.64 25.0824C1115.19 19.6103 1105.34 28.9803 1108.59 38.8289C1110.8 45.51 1118.42 48.5893 1124.58 44.7922L1126.34 43.5768L1127.89 46.3286C1122.88 50.5476 1115.06 50.8499 1109.94 46.612C1102.98 40.8376 1102.65 30.0256 1109.42 23.9742C1113.85 20.0133 1121.35 18.8799 1126.42 22.3117C1126.76 22.5447 1127.99 23.4011 1127.89 23.7664C1127.7 24.4213 1126.51 25.4414 1126.34 26.2222L1126.34 26.2096Z" fill="black"/>
<path d="M984.418 20.3218C987.147 20.0825 990.066 20.58 992.421 21.9905C992.928 22.2928 994.536 23.2751 994.296 23.8859C994.22 24.0748 992.833 26.2032 992.687 26.2032C989.059 23.0925 983.626 22.5258 979.587 25.2209C968.506 32.6199 976.927 51.0009 989.895 45.4281L992.763 43.6397C993.01 44.1624 994.492 45.8626 994.302 46.316C994.068 46.8701 991.288 48.3373 990.617 48.6018C978.801 53.2301 968.094 42.0466 971.716 30.4348C973.438 24.9123 978.605 20.8382 984.418 20.3218Z" fill="black"/>
<path d="M1158.28 20.8571C1163.67 20.8571 1172.08 20.0826 1173.28 27.0219C1174.03 31.3291 1172.41 35.3277 1168.02 36.6626C1167.56 36.8012 1166.02 37.1979 1165.64 37.1979H1161.78L1161.64 49.0615H1158.28V20.8571ZM1161.78 34.0242H1165.35C1165.64 34.0242 1167.28 33.5267 1167.61 33.3756C1170.81 31.9399 1171.19 26.9022 1168.25 25.0824C1167.57 24.6668 1165.68 24.0434 1164.92 24.0434H1161.78V34.0242Z" fill="black"/>
<path d="M1195.18 22.1606C1195.94 22.085 1196.66 21.8394 1197.4 22.192C1198.15 22.5447 1198.23 23.5837 1197.37 23.7537V24.0371C1197.99 24.1315 1197.9 25.0887 1198.09 25.5547C1196.62 26.0521 1197.56 23.8922 1196.05 24.1819L1195.99 25.4917L1195.18 25.6302V22.1606ZM1196.05 23.6089C1196.51 23.6215 1197.15 23.7348 1197.08 23.0988C1197.12 22.7966 1196.38 22.5195 1196.19 22.658L1196.06 23.6089H1196.05Z" fill="black"/>
<defs>
<linearGradient id="paint0_linear_348_511" x1="4.67394" y1="34.0721" x2="1283.1" y2="34.0721" gradientUnits="userSpaceOnUse">
<stop stop-color="#DAB145"/>
<stop offset="0.03" stop-color="#DAB145"/>
<stop offset="0.06" stop-color="#E7C15C"/>
<stop offset="0.08" stop-color="#EDC967"/>
<stop offset="0.17" stop-color="#DBB652"/>
<stop offset="0.25" stop-color="#CFA944"/>
<stop offset="0.31" stop-color="#D4B04B"/>
<stop offset="0.4" stop-color="#E4C660"/>
<stop offset="0.44" stop-color="#EDD36C"/>
<stop offset="0.58" stop-color="#F7EF8A"/>
<stop offset="0.63" stop-color="#F7EF8A"/>
<stop offset="0.7" stop-color="#EEDA71"/>
<stop offset="0.77" stop-color="#E9CB60"/>
<stop offset="0.81" stop-color="#DFBF56"/>
<stop offset="0.85" stop-color="#D9B850"/>
<stop offset="1" stop-color="#AD8524"/>
</linearGradient>
</defs>
</svg>
